<svg width="45" height="45" viewBox="0 0 45 45" fill="none" xmlns="http://www.w3.org/2000/svg">
<g clip-path="url(#clip0_70_5625)">
<path d="M21.1816 39.6387C21.9098 39.6387 22.5 39.0484 22.5 38.3203C22.5 37.5922 21.9098 37.002 21.1816 37.002C20.4535 37.002 19.8633 37.5922 19.8633 38.3203C19.8633 39.0484 20.4535 39.6387 21.1816 39.6387Z" fill="black"/>
<path d="M6.67969 25.1367C7.4078 25.1367 7.99805 24.5465 7.99805 23.8184C7.99805 23.0902 7.4078 22.5 6.67969 22.5C5.95158 22.5 5.36133 23.0902 5.36133 23.8184C5.36133 24.5465 5.95158 25.1367 6.67969 25.1367Z" fill="black"/>
<path d="M10.9272 35.3909C11.6554 35.3909 12.2456 34.8006 12.2456 34.0725C12.2456 33.3444 11.6554 32.7542 10.9272 32.7542C10.1991 32.7542 9.60889 33.3444 9.60889 34.0725C9.60889 34.8006 10.1991 35.3909 10.9272 35.3909Z" fill="black"/>
<path d="M10.9272 14.7947C11.6554 14.7947 12.2456 14.2044 12.2456 13.4763C12.2456 12.7482 11.6554 12.158 10.9272 12.158C10.1991 12.158 9.60889 12.7482 9.60889 13.4763C9.60889 14.2044 10.1991 14.7947 10.9272 14.7947Z" fill="black"/>
<path d="M31.436 35.3909C32.1641 35.3909 32.7544 34.8006 32.7544 34.0725C32.7544 33.3444 32.1641 32.7542 31.436 32.7542C30.7079 32.7542 30.1177 33.3444 30.1177 34.0725C30.1177 34.8006 30.7079 35.3909 31.436 35.3909Z" fill="black"/>
<path d="M22.5 0C21.7719 0 21.1816 0.590273 21.1816 1.31836V2.63672C9.52137 2.63672 0 12.1588 0 23.8184C0 35.4786 9.52216 45 21.1816 45C32.8128 45 42.2754 35.498 42.2754 23.8184H43.6816C44.4097 23.8184 45 23.2281 45 22.5C45 10.1289 34.8694 0 22.5 0ZM21.1816 42.3633C10.9559 42.3633 2.63672 34.0441 2.63672 23.8184C2.63672 13.5926 10.9559 5.27344 21.1816 5.27344V9.22852C21.1816 9.9566 21.7719 10.5469 22.5 10.5469C29.0425 10.5469 34.3652 15.909 34.3652 22.5C34.3652 23.2281 34.9555 23.8096 35.6836 23.8096H39.6387C39.6387 34.0353 31.3588 42.3633 21.1816 42.3633ZM36.9432 21.1816C36.3214 14.2343 30.773 8.60273 23.8184 7.96983V2.67996C33.7224 3.33246 41.6675 11.2776 42.32 21.1816H36.9432Z" fill="black"/>
<path d="M21.1816 13.1836C15.3661 13.1836 10.6348 17.9543 10.6348 23.8184C10.6348 29.6339 15.3661 34.3652 21.1816 34.3652C26.9972 34.3652 31.7285 29.6339 31.7285 23.8184C31.7285 17.9543 26.9972 13.1836 21.1816 13.1836ZM21.1816 31.7285C16.82 31.7285 13.2715 28.18 13.2715 23.8184C13.2715 19.4083 16.82 15.8203 21.1816 15.8203C25.5433 15.8203 29.0918 19.4083 29.0918 23.8184C29.0918 28.18 25.5433 31.7285 21.1816 31.7285Z" fill="black"/>
<path d="M21.1816 18.5449C18.2739 18.5449 15.9082 20.9106 15.9082 23.8184C15.9082 26.7261 18.2739 29.0918 21.1816 29.0918C24.0894 29.0918 26.4551 26.7261 26.4551 23.8184C26.4551 20.9106 24.0894 18.5449 21.1816 18.5449ZM21.1816 26.4551C19.7278 26.4551 18.5449 25.2722 18.5449 23.8184C18.5449 22.3645 19.7278 21.1816 21.1816 21.1816C22.6355 21.1816 23.8184 22.3645 23.8184 23.8184C23.8184 25.2722 22.6355 26.4551 21.1816 26.4551Z" fill="black"/>
</g>
<defs>
<clipPath id="clip0_70_5625">
<rect width="45" height="45" fill="white"/>
</clipPath>
</defs>
</svg>
