<svg width="25" height="25" viewBox="0 0 25 25" fill="none" xmlns="http://www.w3.org/2000/svg">
<g clip-path="url(#clip0_96_60)">
<path d="M0 12.2766V14.0904C0 14.5631 0.376367 14.947 0.845703 14.9611V11.4059C0.376367 11.4199 0 11.8039 0 12.2766Z" fill="#FFB300"/>
<path d="M3.01826 6.24585C2.30117 6.24585 1.71777 6.82925 1.71777 7.54634V9.41621H16.2587V6.24585H3.01826Z" fill="#FFB300"/>
<path d="M20.3824 6.85582C20.1562 6.47965 19.7429 6.24591 19.304 6.24591H17.4214V9.41622H17.4214H21.9221L20.3824 6.85582Z" fill="#FFB300"/>
<path d="M24.2735 15.4346V12.974C24.2735 12.2829 24.0074 11.6302 23.5241 11.136L22.9791 10.5789H1.71792V15.4417C1.32568 15.527 1.03174 15.8757 1.03174 16.2935C1.03174 16.4417 1.06895 16.5811 1.13418 16.7033C1.28091 16.9782 1.57036 17.1655 1.90376 17.1655H3.47173C3.48267 15.8291 4.57275 14.7453 5.91167 14.7453C7.25054 14.7453 8.34063 15.8291 8.35156 17.1655H18.054C18.0649 15.8291 19.155 14.7453 20.4938 14.7453C21.8328 14.7453 22.9229 15.8291 22.9338 17.1655H24.1281C24.4701 17.1656 24.7655 16.9681 24.9083 16.6813C24.9665 16.5644 25 16.4331 25 16.2936C25.0002 15.8616 24.6858 15.5039 24.2735 15.4346Z" fill="#FFB300"/>
<path d="M5.91172 15.6174C5.04688 15.6174 4.34326 16.321 4.34326 17.1858C4.34326 18.0506 5.04688 18.7542 5.91172 18.7542C6.77651 18.7542 7.48013 18.0506 7.48013 17.1858C7.48013 16.321 6.77651 15.6174 5.91172 15.6174Z" fill="#FFB300"/>
<path d="M20.4937 15.6174C19.6289 15.6174 18.9253 16.321 18.9253 17.1858C18.9253 18.0506 19.6289 18.7542 20.4937 18.7542C21.3585 18.7542 22.0622 18.0506 22.0622 17.1858C22.0622 16.321 21.3585 15.6174 20.4937 15.6174Z" fill="#FFB300"/>
</g>
<defs>
<clipPath id="clip0_96_60">
<rect width="25" height="25" fill="white"/>
</clipPath>
</defs>
</svg>
