<svg width="20" height="20" viewBox="0 0 20 20" fill="none" xmlns="http://www.w3.org/2000/svg">
<g clip-path="url(#clip0_952_2543)">
<path d="M17.6553 13.3559C17.1178 14.8128 16.3048 16.0796 15.2387 17.1207C14.0251 18.3057 12.4361 19.2473 10.5156 19.919C10.4526 19.941 10.3868 19.959 10.3207 19.9723C10.2335 19.9895 10.1447 19.9988 10.0566 20H10.0394C9.94553 20 9.85123 19.9906 9.75769 19.9723C9.69162 19.959 9.62677 19.941 9.56406 19.9195C7.6413 19.2488 6.05026 18.3077 4.83551 17.1227C3.76892 16.0816 2.95608 14.8155 2.41928 13.3586C1.44317 10.7097 1.49871 7.79161 1.54342 5.44663L1.54418 5.41062C1.55319 5.21699 1.55898 5.01359 1.56219 4.78898C1.57852 3.68623 2.45529 2.7739 3.55819 2.71241C5.85769 2.58408 7.63657 1.83411 9.1565 0.352636L9.16977 0.340428C9.42215 0.108952 9.74014 -0.00457308 10.0566 0.000157169C10.3618 0.00412447 10.6657 0.117497 10.9091 0.340428L10.9221 0.352636C12.4423 1.83411 14.2212 2.58408 16.5207 2.71241C17.6236 2.7739 18.5004 3.68623 18.5167 4.78898C18.5199 5.01512 18.5257 5.21821 18.5347 5.41062L18.5352 5.42588C18.5797 7.77528 18.635 10.6992 17.6553 13.3559Z" fill="#00DD80"/>
<path d="M17.6554 13.3559C17.1178 14.8128 16.3048 16.0796 15.2387 17.1207C14.0251 18.3057 12.4361 19.2473 10.5156 19.919C10.4526 19.941 10.3868 19.959 10.3208 19.9722C10.2335 19.9895 10.1447 19.9988 10.0566 20V0.000152588C10.3618 0.00411989 10.6658 0.117493 10.9091 0.340424L10.9221 0.352631C12.4424 1.83411 14.2212 2.58408 16.5207 2.7124C17.6236 2.7739 18.5004 3.68622 18.5167 4.78898C18.5199 5.01511 18.5257 5.21821 18.5347 5.41062L18.5352 5.42588C18.5798 7.77528 18.635 10.6992 17.6554 13.3559Z" fill="#00AA63"/>
<path d="M15.0237 10C15.0237 12.7425 12.797 14.9748 10.0568 14.9846H10.0393C7.29102 14.9846 5.05469 12.7484 5.05469 10C5.05469 7.25176 7.29102 5.01558 10.0393 5.01558H10.0568C12.797 5.02534 15.0237 7.25771 15.0237 10Z" fill="white"/>
<path d="M15.0235 10C15.0235 12.7425 12.7968 14.9748 10.0566 14.9846V5.01558C12.7968 5.02534 15.0235 7.25771 15.0235 10Z" fill="#E1EBF0"/>
<path d="M12.3024 9.28224L10.0575 11.5274L9.5724 12.0125C9.45781 12.1271 9.30751 12.1843 9.15737 12.1843C9.00707 12.1843 8.85692 12.1271 8.74217 12.0125L7.69923 10.9691C7.47005 10.7399 7.47005 10.3687 7.69923 10.1393C7.92812 9.91013 8.29982 9.91013 8.52901 10.1393L9.15737 10.7677L11.4726 8.45246C11.7018 8.22312 12.0735 8.22312 12.3024 8.45246C12.5315 8.68165 12.5315 9.05335 12.3024 9.28224Z" fill="#B4D2D7"/>
<path d="M12.3015 9.28224L10.0566 11.5274V9.86741L11.4717 8.45246C11.7009 8.22312 12.0726 8.22312 12.3015 8.45246C12.5307 8.68165 12.5307 9.05335 12.3015 9.28224Z" fill="#6FA5AA"/>
</g>
<defs>
<clipPath id="clip0_952_2543">
<rect width="20" height="20" fill="white"/>
</clipPath>
</defs>
</svg>
