<svg width="25" height="25" viewBox="0 0 25 25" fill="none" xmlns="http://www.w3.org/2000/svg">
<g clip-path="url(#clip0_70_7036)">
<path d="M24.8567 9.12839C24.7345 8.97924 24.552 8.89218 24.3606 8.89218H21.9275C21.3271 7.30848 20.5449 5.75678 19.6557 5.17105C16.5799 3.14757 8.42157 3.14757 5.34578 5.17105C4.45601 5.75742 3.67698 7.31104 3.07334 8.89218H0.640233C0.446916 8.89218 0.265121 8.97924 0.144138 9.12839C0.0225142 9.27691 -0.0261352 9.47343 0.0135525 9.66227L0.373942 11.4086C0.435393 11.7062 0.697844 11.9188 1.00062 11.9188H1.7214C1.02559 12.7215 0.688242 13.7323 0.683761 14.7437C0.67928 15.9932 1.15361 17.1225 2.02098 17.9213C2.03058 17.9297 2.04018 17.9354 2.04914 17.9438V20.3872C2.04914 20.9166 2.47931 21.3474 3.00933 21.3474H5.2536C5.78362 21.3474 6.21378 20.9166 6.21378 20.3872V19.4052H18.7864V20.3872C18.7864 20.9166 19.2166 21.3474 19.7466 21.3474H21.9909C22.5196 21.3474 22.9511 20.9166 22.9511 20.3872V17.9918C23.8716 17.1487 24.3113 15.9888 24.3171 14.8308C24.3209 13.7848 23.9682 12.7369 23.2314 11.9175H24.0002C24.3043 11.9175 24.5667 11.705 24.6269 11.4066L24.9879 9.66099C25.0251 9.47343 24.9783 9.27819 24.8567 9.12839ZM6.40006 6.7746C8.85173 5.16081 16.1485 5.16081 18.5989 6.7746C19.0751 7.08699 19.6877 8.34998 20.2491 9.89656H4.7511C5.31121 8.35062 5.92381 7.08827 6.40006 6.7746ZM3.52847 14.9844C3.52847 13.941 4.37471 13.096 5.41747 13.096C6.46151 13.096 7.30647 13.941 7.30647 14.9844C7.30647 16.0278 6.46151 16.8734 5.41747 16.8734C4.37471 16.8734 3.52847 16.0278 3.52847 14.9844ZM19.6077 16.8734C18.565 16.8734 17.7187 16.0278 17.7187 14.9844C17.7187 13.941 18.565 13.096 19.6077 13.096C20.6518 13.096 21.4967 13.941 21.4967 14.9844C21.4967 16.0278 20.6505 16.8734 19.6077 16.8734Z" fill="#FFB300"/>
</g>
<defs>
<clipPath id="clip0_70_7036">
<rect width="25" height="25" fill="white"/>
</clipPath>
</defs>
</svg>
