<svg width="20" height="20" viewBox="0 0 20 20" fill="none" xmlns="http://www.w3.org/2000/svg">
<path d="M10 20C8.17708 19.974 6.51042 19.5312 5 18.6719C3.48958 17.7865 2.26562 16.5625 1.32812 15C0.442708 13.4115 0 11.7448 0 10C0 8.25521 0.442708 6.58854 1.32812 5C2.26562 3.4375 3.48958 2.21354 5 1.32812C6.51042 0.46875 8.17708 0.0260417 10 0C11.8229 0.0260417 13.4896 0.46875 15 1.32812C16.5104 2.21354 17.7344 3.4375 18.6719 5C19.5573 6.58854 20 8.25521 20 10C20 11.7448 19.5573 13.4115 18.6719 15C17.7344 16.5625 16.5104 17.7865 15 18.6719C13.4896 19.5312 11.8229 19.974 10 20ZM14.4141 8.16406C14.7786 7.72135 14.7786 7.27865 14.4141 6.83594C13.9714 6.47135 13.5286 6.47135 13.0859 6.83594L8.75 11.1719L6.91406 9.33594C6.47135 8.97135 6.02865 8.97135 5.58594 9.33594C5.22135 9.77865 5.22135 10.2214 5.58594 10.6641L8.08594 13.1641C8.52865 13.5286 8.97135 13.5286 9.41406 13.1641L14.4141 8.16406Z" fill="#006F5D"/>
</svg>
