<svg width="125" height="132" viewBox="0 0 125 132" fill="none" xmlns="http://www.w3.org/2000/svg">
<mask id="path-1-inside-1_70_7057" fill="white">
<path d="M103.111 0C114.975 0.000120507 124.593 9.61764 124.593 21.4814V94.5186C124.593 106.382 114.975 116 103.111 116H100.049L88 132L75.9512 116H21.4814C9.61758 116 1.82336e-05 106.382 0 94.5186V21.4814C1.63652e-05 9.61758 9.61758 1.85408e-05 21.4814 0H103.111Z"/>
</mask>
<path d="M103.111 0C114.975 0.000120507 124.593 9.61764 124.593 21.4814V94.5186C124.593 106.382 114.975 116 103.111 116H100.049L88 132L75.9512 116H21.4814C9.61758 116 1.82336e-05 106.382 0 94.5186V21.4814C1.63652e-05 9.61758 9.61758 1.85408e-05 21.4814 0H103.111Z" fill="white" fill-opacity="0.29"/>
<path d="M103.111 0L103.111 -1H103.111V0ZM124.593 21.4814H125.593V21.4814L124.593 21.4814ZM124.593 94.5186H125.593H124.593ZM103.111 116V117H103.111L103.111 116ZM100.049 116V115H99.55L99.25 115.398L100.049 116ZM88 132L87.2012 132.602L88 133.662L88.7988 132.602L88 132ZM75.9512 116L76.75 115.398L76.45 115H75.9512V116ZM21.4814 116L21.4814 117H21.4814V116ZM0 94.5186H-1H0ZM0 21.4814L-1 21.4814V21.4814H0ZM21.4814 0V-1H21.4814L21.4814 0ZM103.111 0L103.111 1C114.423 1.00011 123.593 10.1699 123.593 21.4814L124.593 21.4814L125.593 21.4814C125.593 9.06535 115.527 -0.999874 103.111 -1L103.111 0ZM124.593 21.4814H123.593V94.5186H124.593H125.593V21.4814H124.593ZM124.593 94.5186H123.593C123.593 105.83 114.423 115 103.111 115L103.111 116L103.111 117C115.527 117 125.593 106.935 125.593 94.5186H124.593ZM103.111 116V115H100.049V116V117H103.111V116ZM100.049 116L99.25 115.398L87.2012 131.398L88 132L88.7988 132.602L100.848 116.602L100.049 116ZM88 132L88.7988 131.398L76.75 115.398L75.9512 116L75.1523 116.602L87.2012 132.602L88 132ZM75.9512 116V115H21.4814V116V117H75.9512V116ZM21.4814 116L21.4814 115C10.1699 115 1.00002 105.83 1 94.5186H0H-1C-0.999981 106.935 9.0653 117 21.4814 117L21.4814 116ZM0 94.5186H1V21.4814H0H-1V94.5186H0ZM0 21.4814L1 21.4814C1.00002 10.1699 10.1699 1.00002 21.4814 1L21.4814 0L21.4814 -1C9.06529 -0.999981 -0.999983 9.06529 -1 21.4814L0 21.4814ZM21.4814 0V1H103.111V0V-1H21.4814V0Z" fill="white" mask="url(#path-1-inside-1_70_7057)"/>
</svg>
