<svg width="24" height="24" viewBox="0 0 24 24" fill="none" xmlns="http://www.w3.org/2000/svg">
<g clip-path="url(#clip0_96_20)">
<path d="M22.3701 0.53773C23.0221 0.00803539 24 0.496974 24 1.35267V14.351V14.3917V14.4325C24 16.5921 22.3701 18.5072 20.2105 18.6702C17.8065 18.8739 15.7691 17.0403 15.6876 14.6362C15.6876 14.5547 15.6876 14.4732 15.6876 14.3917C15.6876 13.8213 16.1766 13.3731 16.7471 13.3731H21.9626V3.75675L13.8132 11.7432V17.7737C15.4024 18.1404 16.4211 19.7296 16.0951 21.3187C15.8098 22.6633 14.5875 23.6413 13.202 23.682H5.33785C3.70796 23.682 2.36332 22.3374 2.36332 20.7075C2.36332 20.3815 2.40408 20.0555 2.5263 19.7703H2.24105C1.01863 19.7703 -4.57764e-05 18.7517 -4.57764e-05 17.5292V16.0216C-4.57764e-05 14.7992 1.01863 13.8213 2.24105 13.7805H4.40068L5.21562 10.317C5.50087 9.13535 6.56026 8.27965 7.78268 8.27965H12.4279L22.3701 0.53773ZM4.35992 20.7075C4.35992 21.2372 4.7674 21.6447 5.29709 21.6447H13.1613C13.691 21.6854 14.1392 21.278 14.18 20.7482C14.2207 20.2185 13.8132 19.7703 13.2835 19.7295C13.2427 19.7295 13.202 19.7295 13.1613 19.7295H5.29709C4.80815 19.7703 4.35992 20.1778 4.35992 20.7075Z" fill="#FFB300"/>
</g>
<defs>
<clipPath id="clip0_96_20">
<rect width="24" height="24" fill="white" transform="matrix(-1 0 0 1 24 0)"/>
</clipPath>
</defs>
</svg>
