<svg width="17" height="17" viewBox="0 0 17 17" fill="none" xmlns="http://www.w3.org/2000/svg">
<path d="M8.10005 0C7.71662 0 7.40576 0.310848 7.40576 0.694292C7.40576 1.07774 7.71662 1.38858 8.10005 1.38858C11.8067 1.38858 14.8115 4.39342 14.8115 8.10007C14.8115 11.8068 11.8067 14.8116 8.10005 14.8116C7.71662 14.8116 7.40576 15.1224 7.40576 15.5059C7.40576 15.8893 7.71662 16.2001 8.10005 16.2001C12.5736 16.2001 16.2001 12.5736 16.2001 8.10007C16.2001 3.62653 12.5736 0 8.10005 0Z" fill="#FFB300"/>
<path d="M6.68344 5.81383C6.4123 5.54269 6.4123 5.10309 6.68344 4.83195C6.95458 4.56082 7.39412 4.56082 7.66526 4.83195L10.4424 7.60915C10.7136 7.88029 10.7136 8.31983 10.4424 8.59097L7.66526 11.3681C7.39412 11.6393 6.95458 11.6393 6.68344 11.3681C6.4123 11.097 6.4123 10.6575 6.68344 10.3863L8.27531 8.79435H0.694292C0.310848 8.79435 0 8.48349 0 8.10006C0 7.71662 0.310848 7.40577 0.694292 7.40577H8.27531L6.68344 5.81383Z" fill="#FFB300"/>
</svg>
