<svg width="66" height="66" viewBox="0 0 66 66" fill="none" xmlns="http://www.w3.org/2000/svg">
<path d="M32.9824 65.9636C14.7959 65.9636 0 51.1677 0 32.9813C0 14.7948 14.7959 0 32.9824 0C51.1688 0 65.9647 14.7948 65.9647 32.9813C65.9647 51.1677 51.1677 65.9636 32.9824 65.9636Z" fill="white"/>
<path d="M49.6946 9.74947C51.1026 9.74947 52.4941 9.82185 53.867 9.95343C48.3425 4.93886 41.0131 1.87836 32.9819 1.87836C15.8317 1.87836 1.87793 15.831 1.87793 32.9823C1.87793 39.1033 3.66313 44.8131 6.72912 49.6303C8.37615 27.3317 26.9749 9.74947 49.6946 9.74947Z" fill="#E0E0E0"/>
<path d="M32.9812 64.0851C50.1314 64.0851 64.0851 50.1325 64.0851 32.9812C64.0851 23.8622 60.1397 15.6478 53.8674 9.95228C52.4945 9.82069 51.1029 9.74832 49.695 9.74832C26.9764 9.74832 8.37653 27.3317 6.72949 49.6292C12.2529 58.3106 21.9531 64.0851 32.9812 64.0851Z" fill="#B5B5B5"/>
<path d="M32.9821 57.5826C46.5684 57.5826 57.5823 46.5687 57.5823 32.9823C57.5823 19.396 46.5684 8.38208 32.9821 8.38208C19.3957 8.38208 8.38184 19.396 8.38184 32.9823C8.38184 46.5687 19.3957 57.5826 32.9821 57.5826Z" fill="#9E9E9E"/>
<path d="M47.781 29.6598L37.5545 28.174L32.9818 18.907L28.4081 28.174L18.1826 29.6598L25.5822 36.8719L23.8354 47.0568L32.9818 42.2484L42.1282 47.0568L40.3814 36.8719L47.781 29.6598Z" fill="#F6F6F6"/>
<path d="M50.628 12.2596C51.1686 12.8002 52.9253 13.6347 53.7444 14.0075C53.9089 14.0821 53.9089 14.3146 53.7444 14.3891C52.9253 14.7619 51.1697 15.5953 50.628 16.137C50.0874 16.6776 49.2529 18.4343 48.8801 19.2535C48.8055 19.4179 48.573 19.4179 48.4984 19.2535C48.1256 18.4343 47.2922 16.6787 46.7505 16.137C46.2099 15.5964 44.4532 14.7619 43.6341 14.3891C43.4696 14.3146 43.4696 14.0821 43.6341 14.0075C44.4532 13.6347 46.2088 12.8013 46.7505 12.2596C47.2911 11.719 48.1256 9.9623 48.4984 9.14317C48.573 8.97868 48.8055 8.97868 48.8801 9.14317C49.2518 9.9623 50.0863 11.7179 50.628 12.2596Z" fill="white"/>
<path d="M47.7816 29.6598L37.5551 28.1729L32.9824 18.907V42.2484L42.1288 47.0568L40.382 36.8719L47.7816 29.6598Z" fill="#E0E0E0"/>
</svg>
