<svg width="45" height="45" viewBox="0 0 45 45" fill="none" xmlns="http://www.w3.org/2000/svg">
<g clip-path="url(#clip0_70_5617)">
<path d="M35.5501 2.92494H32.9401V1.61994C32.9401 0.899941 32.3551 0.314941 31.6351 0.314941C30.9151 0.314941 30.3301 0.899941 30.3301 1.61994V2.92494H14.6701V1.61994C14.6701 0.899941 14.0851 0.314941 13.3651 0.314941C12.6451 0.314941 12.0601 0.899941 12.0601 1.61994V2.92494H9.45012C5.12562 2.92494 1.62012 6.43044 1.62012 10.7549V36.8549C1.62012 41.1794 5.12562 44.6849 9.45012 44.6849H35.5501C39.8746 44.6849 43.3801 41.1794 43.3801 36.8549V10.7549C43.3801 6.43044 39.8746 2.92494 35.5501 2.92494ZM40.7701 36.8549C40.7656 39.7349 38.4301 42.0704 35.5501 42.0749H9.45012C6.57012 42.0704 4.23462 39.7349 4.23012 36.8549V15.9749H40.7701V36.8549ZM40.7701 13.3649H4.23012V10.7549C4.23462 7.87494 6.57012 5.53944 9.45012 5.53494H12.0601V6.83994C12.0601 7.55994 12.6451 8.14494 13.3651 8.14494C14.0851 8.14494 14.6701 7.55994 14.6701 6.83994V5.53494H30.3301V6.83994C30.3301 7.55994 30.9151 8.14494 31.6351 8.14494C32.3551 8.14494 32.9401 7.55994 32.9401 6.83994V5.53494H35.5501C38.4301 5.53944 40.7656 7.87494 40.7701 10.7549V13.3649ZM15.0526 31.2524C14.5531 30.7349 14.5666 29.9069 15.0841 29.4074C15.5881 28.9169 16.3936 28.9169 16.8976 29.4074L21.0871 33.5969L30.6136 21.6854C31.0636 21.1229 31.8871 21.0329 32.4496 21.4829C33.0121 21.9329 33.1021 22.7564 32.6521 23.3189L22.2121 36.3689C21.9781 36.6569 21.6361 36.8369 21.2671 36.8549H21.1951C20.8486 36.8549 20.5156 36.7199 20.2726 36.4724L15.0526 31.2524Z" fill="black"/>
</g>
<defs>
<clipPath id="clip0_70_5617">
<rect width="45" height="45" fill="white"/>
</clipPath>
</defs>
</svg>
