<svg width="25" height="25" viewBox="0 0 25 25" fill="none" xmlns="http://www.w3.org/2000/svg">
<g clip-path="url(#clip0_96_10)">
<path d="M22.25 10.375C22 9.25 21.5 8.125 20.875 7.125L22.125 4.5L20.375 2.75L17.75 4C16.75 3.375 15.75 3 14.625 2.75L13.75 0H11.25L10.25 2.75C9.125 3 8.125 3.5 7.125 4.125L4.5 2.875L2.75 4.5L4 7.125C3.375 8.125 3 9.125 2.75 10.25L0 11.25V13.75L2.75 14.75C3 15.875 3.5 17 4 17.875L2.75 20.5L4.5 22.25L7.125 21C8.125 21.625 9.125 22.125 10.25 22.375L11.25 25H13.75L14.75 22.25C15.125 22.125 15.625 22 16 21.875L14 19.875C9.25 20.75 5 17.25 5 12.5C5 8.375 8.375 5 12.5 5C17.125 5 20.625 9.125 19.875 13.5L22 15.625C22.125 15.25 22.25 15 22.25 14.625L25 13.75V11.25L22.25 10.375Z" fill="#FFB300"/>
<path d="M24.5 21.75L17.125 14.375C18.875 10.5 15.25 6.37501 11.25 7.50001L13.5 9.75001C14.5 10.75 14.5 12.375 13.5 13.25C12.625 14.25 10.875 14.25 10 13.25L7.75 11.125C6.625 14.625 10.25 18.625 14.375 17L21.75 24.375C22.5 25.125 23.625 25.125 24.375 24.375C25.125 23.75 25.125 22.5 24.5 21.75Z" fill="#FFB300"/>
</g>
<defs>
<clipPath id="clip0_96_10">
<rect width="25" height="25" fill="white"/>
</clipPath>
</defs>
</svg>
