<svg width="25" height="25" viewBox="0 0 25 25" fill="none" xmlns="http://www.w3.org/2000/svg">
<path d="M20.4044 12.8676C18.6631 12.8676 17.2195 14.1419 16.9551 15.8088H9.55882V8.45588C9.55882 7.23761 10.5464 6.25 11.7647 6.25H15.8972C16.5155 6.25 17.1055 6.50951 17.5233 6.96531L20.5747 10.2941H23.5294C24.3416 10.2941 25 10.9525 25 11.7647V14.7059C25 15.315 24.5062 15.8088 23.8971 15.8088H23.8538C23.5894 14.1419 22.1457 12.8676 20.4044 12.8676ZM11.0294 10.2941H13.6029V7.72059H11.7647C11.3586 7.72059 11.0294 8.04979 11.0294 8.45588V10.2941ZM15.0735 10.2941H18.5797L16.4392 7.95902C16.3 7.80709 16.1033 7.72059 15.8972 7.72059H15.0735V10.2941ZM4.22794 12.8676C2.48665 12.8676 1.04299 14.1419 0.778585 15.8088H0.735294C0.329203 15.8088 0 15.4796 0 15.0735V11.7647C0 10.9525 0.658405 10.2941 1.47059 10.2941H8.08823V15.8088H7.6773C7.4129 14.1419 5.96923 12.8676 4.22794 12.8676ZM4.22794 18.75C2.90814 18.75 1.83824 17.6801 1.83824 16.3603C1.83824 15.0405 2.90814 13.9706 4.22794 13.9706C5.54774 13.9706 6.61765 15.0405 6.61765 16.3603C6.61765 17.6801 5.54774 18.75 4.22794 18.75ZM4.22794 17.2794C4.73556 17.2794 5.14706 16.8679 5.14706 16.3603C5.14706 15.8527 4.73556 15.4412 4.22794 15.4412C3.72033 15.4412 3.30882 15.8527 3.30882 16.3603C3.30882 16.8679 3.72033 17.2794 4.22794 17.2794ZM20.4044 18.75C19.0846 18.75 18.0147 17.6801 18.0147 16.3603C18.0147 15.0405 19.0846 13.9706 20.4044 13.9706C21.7242 13.9706 22.7941 15.0405 22.7941 16.3603C22.7941 17.6801 21.7242 18.75 20.4044 18.75ZM20.4044 17.2794C20.912 17.2794 21.3235 16.8679 21.3235 16.3603C21.3235 15.8527 20.912 15.4412 20.4044 15.4412C19.8968 15.4412 19.4853 15.8527 19.4853 16.3603C19.4853 16.8679 19.8968 17.2794 20.4044 17.2794Z" fill="#FFB300"/>
</svg>
