<svg width="25" height="25" viewBox="0 0 25 25" fill="none" xmlns="http://www.w3.org/2000/svg">
<path d="M5.14707 19.3015C3.52271 19.3015 2.20591 17.9847 2.20591 16.3603C2.20591 14.7359 3.52271 13.4191 5.14707 13.4191C6.77144 13.4191 8.08823 14.7359 8.08823 16.3603C8.08823 17.9847 6.77144 19.3015 5.14707 19.3015ZM5.14707 17.8309C5.95928 17.8309 6.61768 17.1725 6.61768 16.3603C6.61768 15.548 5.95928 14.8896 5.14707 14.8896C4.33486 14.8896 3.67646 15.548 3.67646 16.3603C3.67646 17.1725 4.33486 17.8309 5.14707 17.8309ZM19.8529 19.3015C18.2286 19.3015 16.9118 17.9847 16.9118 16.3603C16.9118 14.7359 18.2286 13.4191 19.8529 13.4191C21.4773 13.4191 22.7941 14.7359 22.7941 16.3603C22.7941 17.9847 21.4773 19.3015 19.8529 19.3015ZM19.8529 17.8309C20.6651 17.8309 21.3235 17.1725 21.3235 16.3603C21.3235 15.548 20.6651 14.8896 19.8529 14.8896C19.0407 14.8896 18.3823 15.548 18.3823 16.3603C18.3824 17.1725 19.0407 17.8309 19.8529 17.8309ZM15.8088 16.3603H9.19116C9.19116 14.1268 7.38057 12.3162 5.14702 12.3162C2.94624 12.3162 1.15601 14.0741 1.10405 16.2625C0.963672 16.1817 0.850635 16.0551 0.787842 15.8981L0.0525879 14.0599C0.0178223 13.973 0 13.8803 0 13.7868V10.4779C0 10.295 0.0681641 10.1187 0.191211 9.9833L3.86768 5.93916C4.00703 5.78589 4.20459 5.69849 4.41172 5.69849H14.7043C14.9544 5.69849 15.1875 5.82568 15.3228 6.03608L17.7197 9.76353L23.6069 10.0745C24.3879 10.1158 25 10.761 25 11.5431V15.625C25 16.0311 24.6708 16.3603 24.2646 16.3603H23.897C23.897 14.1268 22.0864 12.3162 19.8529 12.3162C17.6193 12.3162 15.8088 14.1268 15.8088 16.3603Z" fill="#FFB300"/>
</svg>
