<svg width="25" height="25" viewBox="0 0 25 25" fill="none" xmlns="http://www.w3.org/2000/svg">
<g clip-path="url(#clip0_96_2)">
<path d="M17.06 5.3721H0V14.9676H17.06V5.3721Z" fill="#FFB300"/>
<path d="M25 12.2342L23.2462 8.31198H17.8251V15.6906H11.5729H5.74262H2.05957V17.368H3.81355C3.79952 17.4633 3.78986 17.5601 3.78986 17.6593C3.78986 18.7465 4.66413 19.6279 5.74268 19.6279C6.82123 19.6279 7.6955 18.7465 7.6955 17.6593C7.6955 17.5601 7.68584 17.4633 7.67181 17.368H9.64391C9.62989 17.4633 9.62022 17.5601 9.62022 17.6593C9.62022 18.7465 10.4945 19.6279 11.573 19.6279C12.6515 19.6279 13.5258 18.7465 13.5258 17.6593C13.5258 17.5601 13.5162 17.4633 13.5022 17.368H17.8253H18.2089C18.1948 17.4633 18.1852 17.5601 18.1852 17.6593C18.1852 18.7465 19.0595 19.6279 20.138 19.6279C21.2164 19.6279 22.0908 18.7465 22.0908 17.6593C22.0908 17.5601 22.0812 17.4633 22.0671 17.368H25V12.2342ZM5.74262 18.4298C5.32046 18.4298 4.97821 18.0848 4.97821 17.6593C4.97821 17.5561 4.99868 17.4579 5.03509 17.368C5.14907 17.0868 5.42269 16.8886 5.74256 16.8886C6.06243 16.8886 6.33605 17.0868 6.45004 17.368C6.48644 17.4579 6.50691 17.5561 6.50691 17.6593C6.50697 18.0848 6.16478 18.4298 5.74262 18.4298ZM11.5729 18.4298C11.1507 18.4298 10.8085 18.0848 10.8085 17.6593C10.8085 17.5561 10.8289 17.4579 10.8653 17.368C10.9793 17.0868 11.2529 16.8886 11.5728 16.8886C11.8927 16.8886 12.1663 17.0868 12.2802 17.368C12.3167 17.4579 12.3372 17.5561 12.3372 17.6593C12.3372 18.0848 11.995 18.4298 11.5729 18.4298ZM20.1377 18.4298C19.7155 18.4298 19.3733 18.0848 19.3733 17.6593C19.3733 17.5561 19.3938 17.4579 19.4302 17.368C19.5442 17.0868 19.8178 16.8886 20.1376 16.8886C20.4575 16.8886 20.7311 17.0868 20.8451 17.368C20.8815 17.4579 20.902 17.5561 20.902 17.6593C20.9021 18.0848 20.5599 18.4298 20.1377 18.4298ZM19.1159 12.1603C19.0865 12.1603 19.0628 12.1366 19.0628 12.1073V9.45749C19.0628 9.42819 19.0865 9.40444 19.1159 9.40444H22.4531C22.5234 9.40444 22.5871 9.44609 22.6153 9.5106L23.773 12.1603H19.1159Z" fill="#FFB300"/>
</g>
<defs>
<clipPath id="clip0_96_2">
<rect width="25" height="25" fill="white"/>
</clipPath>
</defs>
</svg>
