<svg width="19" height="14" viewBox="0 0 19 14" fill="none" xmlns="http://www.w3.org/2000/svg">
<path d="M18.295 2.0554C18.08 1.2464 17.447 0.6092 16.643 0.393C15.186 2.38419e-08 9.3428 0 9.3428 0C9.3428 0 3.4996 2.38419e-08 2.0426 0.393C1.2386 0.6092 0.6054 1.2464 0.3906 2.0554C-2.38419e-08 3.522 0 6.5816 0 6.5816C0 6.5816 -2.38419e-08 9.6412 0.3904 11.1078C0.6052 11.9168 1.2384 12.554 2.0424 12.7702C3.4996 13.1632 9.3428 13.1632 9.3428 13.1632C9.3428 13.1632 15.186 13.1632 16.6432 12.7702C17.4472 12.5538 18.0802 11.9168 18.2952 11.1078C18.6856 9.6412 18.6856 6.5816 18.6856 6.5816C18.6856 6.5816 18.6856 3.522 18.295 2.0554Z" fill="#FF0000"/>
<path d="M7.40039 3.757V9.4062L12.3664 6.5818L7.40039 3.757Z" fill="#F1F1F1"/>
</svg>
